<svg width="173" height="32" viewBox="0 0 173 32" xmlns="http://www.w3.org/2000/svg"><title>Bitcoinunlimited-logo Copy</title><defs><linearGradient x1="50.01527%" y1="0%" x2="50.01527%" y2="100.0301%" id="a"><stop stop-color="#FF9A00" offset="0%"/><stop stop-color="#F60" offset="100%"/></linearGradient></defs><g fill="none" fill-rule="evenodd"><ellipse fill="url(#a)" cx="8.47614" cy="8.46022" rx="8.47614" ry="8.46022"/><path d="M9.3291 3.43578L8.9559 4.93323l.0533.0076.09902.0228.09138.0228.0914.0228.09138.0228.0533.0076.0457.01522.0457.0076.0457.0152.04568.0076h.00762L9.99926 3.603l1.00526.25085-.38078 1.52785.01523.0076.03046.0076.03046.0152.02284.0076.03046.0076.02285.0076.03046.0152.02286.0076.03046.00762.02285.0152.03046.0076.02285.0152.02284.0076.03046.0076.02285.0152.03046.0076.02284.0152.02285.0076.02283.01522.03047.0076.02284.0152.02285.0076.02284.0152.03046.0076.02285.0152.02284.0076.02284.0152.02285.0076.02283.0152.02285.01522.02285.0076.02284.0152.02285.0152.02285.0076.02284.0152.02286.0152.02285.0076.02285.0152.02285.01522.02285.0152.01523.0076.02284.0152.02285.0152.02285.0152.01523.0152.02285.0076.02284.0152.01523.01522.02285.0152.01523.0152.02285.0152.01523.0152.02285.0152.01523.0152.02285.0152.01524.01522.01522.0152.02284.0152.01523.0152.01523.0152.01523.0152.02284.0152.01523.02282.01524.0152.01523.0152.01523.0152.01523.0152.01523.0228.01522.0152.01523.0152.01523.01522.01524.0228.0076.0152.01524.0152.01523.0228.01522.0152.00762.02282.01523.0152.01523.0152.00762.0228.01523.0152.0076.0228.01525.02282.0076.0152.00763.0076v.0152l.0076.0076.00763.0076v.0152l.0076.0076.00763.0076v.0152l.0076.0076.00762.0076v.01522l.00762.0076v.0076l.0076.0152v.0076l.00763.0076v.0152l.0076.0076.00763.0076v.0152l.0076.0076v.02282l.00763.0076v.0152l.00762.0076v.0152l.0076.0076v.0228l.00763.0076v.0152l.0076.00762v.0228l.00763.0152v.0228l.00762.0076v.038l.00762.0076v.03802l.0076.0076v.0608l.00763.0152V7.40365l-.00762.0152v.0608l-.0076.01522v.038l-.00763.0152v.038l-.0076.02282v.0152l-.00763.0228v.0152l-.00762.0228v.0152l-.00762.0152v.02282l-.0076.0152v.0152l-.00763.0228-.00762.0152v.0152l-.0076.0228v.01522l-.00762.0152-.0076.0152v.0228l-.00763.0152-.0076.0152-.00763.0152v.01522l-.00762.0152-.0076.0152-.00763.0152v.0152l-.0076.0152-.00763.0228-.0076.0076-.00763.01522-.0076.0152-.00762.0152-.00762.0152v.0152l-.0076.0152-.00763.0152-.0076.0152-.00763.01522-.0076.0076-.00763.0152-.0076.0152-.00763.0152-.00762.0076-.01523.0152-.00762.0152-.00762.0152-.0076.00762-.00763.0152-.0076.0152-.00763.0076-.00762.0152-.01523.0076-.0076.0152-.00763.0076-.0076.0152-.00763.0076-.01524.01522-.00762.0076-.0076.0152-.00763.0076-.01522.0152-.0076.0076-.00763.0076-.01523.0152-.00762.0076-.0076.0152-.01524.0076-.00762.00762-.0076.0076-.01525.0152-.00762.0076-.01523.0076-.00762.0076-.0076.0152-.01524.0076-.00763.0076-.01523.0076-.00762.0076-.01523.0076-.00762.0152-.01523.00762-.00762.0076-.01523.0076-.00762.0076-.01523.0076-.01523.0076-.0076.0076-.01525.0076-.0076.0076-.01524.0076-.00762.0076-.01522.0076-.01523.0076h-.00762l-.01523.0076-.01523.0076-.0076.00762-.01525.0076-.01523.0076-.00762.0076h-.01523l-.01523.0076-.01524.0076-.0076.0076h-.01524l-.01523.0076-.01522.0076h-.00762l-.01523.0076-.01523.0076h-.01523l-.00762.0076-.01523.0076H11.431l-.01524.0076h-.01523l-.01524.0076-.00762.0076H11.35483l.01523.00762.01523.0076.01523.0152.02284.0076.01523.0152.02285.0076.01523.0152.02285.0076.01523.0152.01523.0076.01522.0152.02285.00762.01523.0152.01523.0076.01523.0152.02285.0152.01524.0076.01523.0152.01523.0076.01523.0152.01523.0152.01524.00762.01523.0152.01523.0152.01523.0152.01522.0076.01523.0152.01523.0152.01523.0152.01525.0076.01523.01522.01523.0152.00762.0152.01523.0152.01524.0152.01522.0152.0076.0152.01524.0076.00762.01522.01523.0152.01524.0152.00762.0152.01523.0152.0076.0152.01523.0152.00762.0228.01523.01522.00762.0152.0076.0152.01524.0152.00762.0152.00762.0152.0076.0152.01524.02282.00762.0152.0076.0152.00763.0152.0076.0228.00763.0152.00762.0152.0076.01522.00763.0228.0076.0152.00763.0228.0076.0152.00763.0152.00762.0228v.01522l.00762.0228.00762.0152v.0228l.0076.0152.00763.0228v.01522l.0076.0228v.0228l.00762.0152v.0228l.0076.0152v.04562l.00763.0152v.0456l.0076.0228V10.46695l-.0076.02282v.0532l-.00762.0228v.04562l-.0076.0228v.0228l-.00763.0228v.0228l-.0076.03042v.0228l-.00763.0228-.0076.0228-.00763.03042v.0228l-.00762.0228-.0076.0304-.00763.0228-.00762.02282-.00762.0304-.0076.0228-.00763.0304-.0076.0228-.00763.03042-.00762.0228-.0076.0304-.01524.0228v.0228l-.00762.01522-.0076.0152-.00763.0152-.00762.0152v.0228l-.00762.0152-.00762.0152-.0076.01522-.00763.0152-.0076.0152-.00762.0152v.0152l-.0076.0152-.00763.0152-.00762.0152-.0076.01522-.00763.0152-.0076.0152-.00763.0152-.0076.0152-.00763.0152-.0076.0152-.00763.0152-.0076.01522-.00762.0076-.00762.0152-.0076.0152-.00763.0152-.0076.0152-.00763.0076-.0076.0152-.00763.01522-.00762.0152-.0076.0076-.00763.0152-.0076.0152-.00763.0076-.00762.0152-.01523.0152-.00762.0076-.00762.0152-.0076.01522-.00762.0076-.0076.0152-.00763.0076-.01523.0152-.0076.0076-.00763.0152-.00763.0076-.0076.0152-.00763.0076-.01523.01522-.0076.0076-.00762.0152-.00762.0076-.01523.0152-.0076.0076-.00763.0076-.0076.0152-.01524.0076-.00762.0152-.00762.0076-.01523.0076-.00762.00762-.00762.0152-.01523.0076-.0076.0076-.00763.0152-.01523.0076-.00762.0076-.0076.0076-.01524.0076-.0076.0152-.00762.0076-.01524.0076-.0076.00762-.01524.0076-.00762.0076-.0076.0076-.01524.0152-.00762.0076-.01523.0076-.00763.0076-.01523.0076-.0076.0076-.01525.0076-.00762.0076-.01523.0076-.00762.0076-.01523.0076-.0076.00762-.01525.0076-.0076.0076-.01524.0076-.0076.0076h-.01524l-.0076.0076-.01525.0076-.0076.0076-.01523.0076-.01523.0076-.00762.0076h-.01523l-.00763.0076-.01523.0076-.01523.0076-.0076.0076h-.01523l-.00762.0076-.01523.00762h-.01523l-.00763.0076-.01523.0076-.01523.0076h-.0076l-.01524.0076-.01523.0076h-.0076l-.01525.0076h-.01523l-.0076.0076-.01524.0076H10.936l-.01524.0076h-.0076l-.01524.0076-.01523.0076h-.01523l-.00762.0076h-.01523l-.01524.0076h-.01523l-.01523.0076h-.00762l-.01523.00762h-.03046l-.01525.0076h-.0076l-.01524.0076H10.67706l-.01524.0076h-.01522l-.0076.0076h-.03047l-.03046.0076h-.03046l-.03046.0076-.02285.0076h-.03046l-.03045.0076h-.06093l-.03046.0076h-.06092l-.03047.0076H9.83932l-.03808-.0076h-.09901l-.03046-.0076h-.06855l-.03808-.0076H9.5347l-.03807-.0076h-.03046l-.03808-.0076h-.03047l-.03808-.0076H9.3291l-.0381-.0076-.03807-.0076h-.03046l-.03808-.0076-.0381-.0076-.03806-.0076h-.03047l-.03807-.0076-.03808-.0076-.03808-.0076-.03808-.0076-.03046-.0076h-.03808l-.3884 1.53544-1.00525-.24324.38078-1.52025-.0533-.0152-.0914-.0228-.09138-.0228-.0914-.0228-.099-.02282-.09138-.0304-.0914-.0228-.06092-.0152-.38078 1.52785-1.00526-.25085.3884-1.54305-1.87344-.47128-.0076-.0076.495-1.1326.06093.0152.07615.0228.10662.03042.06092.0152.06854.0152.06093.0152.0609.0152.06094.0152.02285.0076.02283.0076h.02285l.02285.0076h.01523l.0533.01522h.02284l.00763.0076H5.65074l.00763-.0076H5.68123l.00762-.0076H5.70406l.00763-.0076h.0076v-.0076H5.73452l.00763-.0076h.0076v-.0076h.00763l.00762-.0076.0076-.0076.00763-.0076h.0076v-.00762l.00763-.0076.0076-.0076h.00763v-.0076l.0076-.0076.00762-.0076v-.0076l.00762-.0076.0076-.0076v-.0076h.00763v-.0152h.0076v-.0076l.00763-.0076v-.0076l.0076-.0076v-.00762l.00763-.0076.03046-.12162.9748-3.92225.03806-.13683v-.038l.00762-.0076v-.038l-.00762-.0076v-.03802l-.0076-.0152v-.0228l-.00763-.0076v-.0076l-.0076-.0152v-.0076l-.00763-.0076v-.0076l-.0076-.00762v-.0076l-.00763-.0152-.00762-.0076-.0076-.0076v-.0076l-.00763-.0076-.0076-.0076-.00763-.0076-.00762-.0152-.00762-.0076-.0076-.0076-.00763-.0076-.00762-.0076-.0076-.00762-.00762-.0076-.0076-.0076-.00763-.0076h-.0076v-.0076H6.755l-.0076-.0076-.00763-.0076h-.00763v-.0076h-.0076l-.00763-.0076h-.0076l-.00763-.0076h-.0076l-.00762-.0076h-.0076v-.0076h-.00763l-.00762-.0076H6.6484l-.0076-.0076h-.00763v-.0076h-.01523l-.00762-.00762H6.5951l-.00762-.0076H6.57226l-.00763-.0076H6.5494l-.00762-.0076h-.02284l-.00762-.0076-.70825-.17483.26655-1.0642 1.87343.4637.38078-1.52787 1.00526.25085zM7.9735 4.7584l-1.88103-.46368-.2437.98817.67778.1748H6.5494l.00762.00762h.01523l.0076.0076h.01523l.00763.0076h.01524l.00762.0076h.01523v.0076h.0076l.00762.0076h.01523l.00762.0076h.0076l.00763.0076h.0076l.00763.0076h.0076v.0076h.00763l.0076.0076h.00763l.0076.0076.00762.0076h.00762l.0076.0076.00763.0076h.0076v.00762h.00763l.0076.0076.00763.0076.00762.0076.01523.0076.0076.0152.00763.0076.00762.0076.00762.0076.0076.0076.00763.0152.00762.0076.0076.0076.00762.0076v.01522l.0076.0076.00763.0076.0076.0076v.0152l.00763.0076v.0076l.0076.0152v.0076l.00763.0076v.0076l.00763.0152V5.8302l.0076.0076v.0456l.00763.0076v.05322l-.00762.0076v.038l-.0076.0076-.03048.13683-.9824 3.91465-.03047.12162v.0152l-.00762.0076-.00762.0152v.0076l-.00762.0076v.0076l-.0076.00762-.00763.0076v.0076l-.0076.0076-.00762.0076v.0076l-.0076.0076-.00763.0076-.0076.0076v.0076H5.8259l-.00762.0076v.0076h-.0076l-.00763.0076-.0076.0076-.00763.0076-.0076.0076H5.7726l-.0076.00762h-.00762v.0076h-.00762l-.0076.0076h-.00763l-.0076.0076H5.7193l-.0076.0076h-.01523l-.01525.0076H5.666l-.00762.0076H5.53656l-.01524-.0076H5.49845l-.01523-.0076H5.46037l-.01523-.0076H5.4299l-.02284-.0076h-.02284l-.02285-.0076-.03046-.0076-.0533-.0152-.06093-.0152-.06854-.0152-.06092-.0152-.06092-.01522-.1066-.0304-.0838-.0228-.02283-.0076-.46455 1.06417 1.87343.47127-.3884 1.54306.93672.23564.38078-1.52786.0914.02282.09138.0228.099.0304.0914.0228.09138.0228.0914.02282.09138.0228.09138.0228-.38078 1.52026.9291.22804.3884-1.53546.03808.0076h.03808l.03046.0076.03808.0076.03807.0076.03808.0076.03047.0076h.03808l.03808.0076.03808.0076.03047.0076h.03808l.03808.0076h.03046l.03807.0076.03046.00762h.03808l.03047.0076h.03808l.03046.0076h.0381l.03045.0076h.06854l.03807.0076h.09899l.03046.0076H10.2201l.03047-.0076h.09139l.03046-.0076H10.42573l.03046-.0076h.03046l.03046-.0076.02285-.0076h.03046l.03046-.0076h.03045l.00762-.0076h.01523l.01523-.0076h.03046l.0076-.0076h.01524l.01523-.0076h.03046l.00762-.0076h.01523l.01523-.0076h.01524l.00762-.00762h.01523l.01522-.0076h.01523l.00762-.0076h.01523l.01523-.0076.0076-.0076h.01525l.01523-.0076h.00762l.01523-.0076.01523-.0076h.01524l.0076-.0076h.01524l.00762-.0076.01523-.0076h.01524l.00762-.0076.01523-.0076.01522-.0076h.0076l.01525-.0076.0076-.0076.01524-.00762h.00763l.01523-.0076.01523-.0076.0076-.0076.01524-.0076h.0076l.01524-.0076.00762-.0076.01523-.0076.00762-.0076.01523-.0076.0076-.0076.01524-.0076h.00762l.01523-.0076.00762-.0076.01522-.0076.0076-.0076.01524-.00762.00762-.0076.0076-.0076.01525-.0076.0076-.0076.01524-.0076.00762-.0076.0076-.0152.01524-.0076.0076-.0076.01524-.0076.00762-.0076.0076-.0076.01524-.0076.00762-.0076.00762-.01522.01523-.0076.00762-.0076.00762-.0076.01523-.0076.0076-.0152.00763-.0076.01523-.0076.00762-.0076.0076-.0152.00763-.0076.01523-.0076.00762-.01522.00762-.0076.00762-.0076.01523-.0152.0076-.0076.00762-.0076.0076-.0152.00763-.0076.01523-.0152.00762-.0076.0076-.0152.00763-.00762.0076-.0152.00763-.0076.01523-.0152.0076-.0076.00762-.0152.00762-.0076.0076-.0152.00763-.0076.0076-.0152.00763-.01522.0076-.0076.01525-.0152.0076-.0152.00763-.0076.0076-.0152.00763-.0152.00762-.0076.00762-.0152.0076-.01522.00763-.0152.00762-.0076.0076-.0152.00762-.0152.0076-.0152.00763-.0152.0076-.0076.00763-.0152.0076-.01522.00763-.0152.00763-.0152v-.0152l.0076-.0152.00763-.0152.0076-.0152.00763-.0152.0076-.01522.00762-.0152.0076-.0152.00763-.0152v-.0152l.00762-.0152.0076-.0152.00763-.0152.0076-.01522.00763-.0152v-.0228l.0076-.0152.00763-.0152.00762-.0152.0076-.03042.00763-.0228.00762-.0304.00762-.0228.0076-.0304.00763-.02282.0076-.0304.00763-.0228.00762-.0228.0076-.0304.00763-.02282.0076-.0228.00763-.0228v-.0304l.0076-.02282.00763-.0228v-.0228l.00762-.0228v-.0304l.00762-.02282v-.0228l.00762-.0228v-.0456l.0076-.0228V10.46695l.00763-.0228v-.19004l-.00763-.0228v-.06082l-.0076-.0228v-.038l-.00763-.0152v-.0228l-.00762-.02282v-.0152l-.0076-.0228v-.0152l-.00763-.0228v-.0152l-.00762-.0152-.00762-.02282-.0076-.0152v-.0228l-.00763-.0152-.0076-.0152-.00763-.0228-.00762-.01522-.0076-.0152v-.0228l-.00763-.0152-.0076-.0152-.00763-.0152-.01523-.0152-.00762-.02282-.00762-.0152-.00762-.0152-.0076-.0152-.00763-.0152-.0076-.0152-.01523-.0152-.00762-.02282-.00762-.0152-.01523-.0152-.0076-.0152-.00763-.0152-.01523-.0152-.0076-.0152-.01525-.0152-.00762-.01522-.01523-.0076-.00762-.0152-.01523-.0152-.01523-.0152-.00762-.0152-.01523-.0152-.01523-.0152-.00762-.0152-.01523-.00762-.01524-.0152-.01522-.0152-.0076-.0152-.01524-.0076-.01523-.0152-.01523-.0152-.01523-.0152-.01523-.0076-.01522-.01522-.01523-.0152-.01523-.0076-.01523-.0152-.01524-.0152-.01524-.0076-.01523-.0152-.01524-.0076-.02284-.0152-.01524-.0076-.01523-.01522-.01523-.0152-.01523-.0076-.02286-.0152-.01523-.0076-.01522-.0152-.02284-.0076-.01524-.0076-.01523-.0152-.02284-.0076-.01524-.01522-.02285-.0076-.01523-.0152-.01523-.0076-.02286-.0076-.01523-.0152-.02284-.0076-.02285-.0076.01525-.0076h.01523l.01523-.0076h.01524l.01523-.0076h.01523l.00762-.0076h.01523l.01523-.0076h.01523l.01524-.0076.00762-.00762h.01523l.01522-.0076h.01523l.00762-.0076.01523-.0076h.01523l.01523-.0076.00762-.0076h.01523l.01524-.0076.0076-.0076.01524-.0076h.01524l.0076-.0076.01524-.0076.01523-.0076h.0076l.01524-.0076.01523-.0076.00762-.0076.01522-.00762.0076-.0076.01524-.0076.01524-.0076h.0076l.01524-.0076.00762-.0076.01523-.0076.0076-.0076.01524-.0076.0076-.0076.01524-.0076.00762-.0076.01523-.0152.00762-.0076.01523-.0076.0076-.00762.00763-.0076.01524-.0076.0076-.0076.01525-.0076.0076-.0152.00762-.0076.01523-.0076.0076-.0076.01524-.0076.0076-.0152.00763-.0076.0076-.0076.01524-.01522.00762-.0076.0076-.0076.01523-.0152.00762-.0076.00762-.0076.0076-.0152.01524-.0076.00763-.0152.0076-.0076.00763-.0152.00762-.00762.0076-.0152.01524-.0076.00762-.0152.0076-.0076.00763-.0152.0076-.0152.00763-.0076.00762-.0152.0076-.0152.00763-.00762.0076-.0152.00763-.0152.0076-.0076.00763-.0152.00762-.0152.00762-.0152.00762-.0076.0076-.0152.00763-.01522.0076-.0152.00762-.0152.0076-.0152.00763-.0152v-.0152l.0076-.0076.00763-.0152.00762-.0152.0076-.01522v-.0152l.00763-.0152.0076-.0228.00763-.0152v-.0152l.0076-.0152.00763-.01522v-.0152l.0076-.0152.00762-.0228v-.0152l.00762-.0152.0076-.0152V7.7837l.00763-.0228v-.0152l.0076-.0152v-.0228l.00763-.0152v-.0228l.0076-.01522v-.0152l.00763-.0228v-.0152l.00762-.0228v-.03802l.0076-.0152v-.038l.00763-.0076v-.06842l.0076-.0152V7.1452l-.0076-.0152V7.0768l-.00762-.01522v-.0456l-.0076-.0076v-.038l-.00763-.0076v-.02282l-.00762-.0152v-.0152l-.0076-.0152v-.0228l-.00762-.0076v-.0076l-.0076-.0152v-.02282l-.00763-.0076v-.0076l-.0076-.0152v-.0076l-.00763-.0076v-.0152l-.00762-.0076v-.0076l-.0076-.0152v-.0076l-.00763-.00762v-.0152l-.0076-.0076v-.0076l-.00763-.0152-.0076-.0076v-.0076l-.00763-.0152v-.0076l-.0076-.0076-.00762-.0076v-.0152l-.00762-.00762-.0076-.0076v-.0076l-.01524-.0228-.00762-.0152-.01523-.0228-.0076-.0152-.01525-.0228-.0076-.01522-.01524-.0228-.00762-.0152-.01523-.0152-.01523-.0228-.01523-.0152-.00762-.01522-.01523-.0152-.01523-.0228-.01524-.0152-.01523-.0152-.01523-.0152-.01523-.0152-.01524-.02282-.01523-.0152-.01523-.0152-.01523-.0152-.01523-.0152-.01522-.0152-.02285-.0152-.01523-.0152-.01523-.01522-.01523-.0152-.02285-.0152-.01524-.0152-.01523-.0152-.02285-.0152-.01523-.0152-.02284-.0152-.01523-.01522-.02284-.0152-.01523-.0152-.02285-.0076-.02285-.0152-.01523-.0152-.02285-.0152-.02284-.0152-.01523-.0076-.02285-.01522-.02285-.0152-.02284-.0152-.02284-.0076-.01523-.0152-.02285-.0152-.02284-.0076-.02285-.0152-.02286-.0152-.02285-.00762-.02285-.0152-.02285-.0076-.02285-.0152-.02284-.0152-.02284-.0076-.02285-.0152-.03045-.0076-.02284-.0152-.02284-.0076-.02285-.01522-.02283-.0076-.03047-.0152-.02284-.0076-.02285-.0152-.02284-.0076-.03046-.0076-.02285-.0152-.02284-.0076-.03046-.0152-.02284-.0076-.03046-.00762-.02285-.0152-.03047-.0076-.02285-.0076-.03046-.0152-.02285-.0076-.03046-.0076-.02284-.0152-.03046-.0076-.02285-.0076-.03046-.0076-.02286-.0152.38078-1.52027-.9367-.23564-.36556 1.48986-.0457-.0152-.0457-.0076-.04568-.0152-.0533-.0076-.0457-.0152-.0457-.0076-.0914-.0228-.09137-.02282-.099-.0228-.09138-.0228-.0914-.0152.37317-1.49746-.9291-.23564-.3808 1.52786zm.01525 4.09708l.03807.0076.03047.0076.03806.0076.07616.0152.08377.0228.04568.00762.0457.0076.0457.0152.04568.0076.0457.0152.0533.0076.0457.0152.0533.0152h.03047l.02285.0076.02285.0076.03046.0076.02283.0076.03047.00762.02284.0076.03047.0076.02285.0076.03047.0076.02284.0076.03046.0076.02285.0076.03046.0076.02285.0152.03046.0076.02285.0076.03045.0076.03046.0076.02286.01522.03046.0076.02285.0076.03046.0076.02285.0152.03046.0076.02285.0076.03045.0152.02285.0076.02284.0152.03047.0076.02285.01522.03046.0076.02286.0152.02285.0076.03047.0152.02285.0076.02284.0152.02285.0152.03047.0076.02285.0152.02285.01522.02284.0152.00763.0076.01523.0076h.01523l.0076.0076.01524.0076.0076.0076.01524.0076.00762.0076.00762.0076.01523.0076.0076.0076.01524.0076.0076.0076.01524.0076.00762.00762.0076.0076.01524.0076.00762.0076.0076.0076.01525.0076.0076.0076.00763.0076.01523.0076.0076.0076.00763.0076.0076.0076.01525.0152.00762.0076.00762.00762.0076.0076.00763.0076.01523.0076.0076.0076.00763.0076.00762.0152.0076.0076.00763.0076.0076.0076.00763.0076.00762.0152.00762.0076.0076.0076.00763.00762.00762.0076.0076.0152.00762.0076.0076.0076.00763.0076.0076.0152.00763.0076.00762.0076.0076.0152v.0076l.00763.0076.0076.01522.00763.0076v.0076l.0076.0152.00763.0076.0076.0076v.0152l.00762.0076v.0152l.00762.0076.0076.0076v.0152l.00763.00762v.0152l.0076.0076v.0152l.00763.0076v.0152l.0076.0076v.0228l.00763.0152v.02282l.0076.0076v.038l.00763.0152v.19004l-.00762.0076v.0456l-.0076.0076v.03042l-.00763.0152v.0152l-.0076.0152v.0076l-.00762.0152v.0152l-.0076.0076v.0152l-.00763.01522v.0152l-.0076.0076v.0152l-.00763.0076-.00762.0152v.0076l-.0076.0152-.00763.0076-.0076.0152v.0076l-.00763.01522-.0076.0076-.00763.0152v.0076l-.0076.0076-.00762.0152-.00762.0076-.0076.0076-.00763.0152-.0076.0076v.0076l-.00763.00762-.0076.0152-.00763.0076-.00762.0076-.0076.0076-.00763.0076-.0076.0076-.00763.0076-.00762.0152-.01523.0076-.00762.0076-.00762.0076-.0076.0076-.00762.0076-.0076.00762-.00763.0076-.01523.0076-.0076.0076h-.00763l-.00763.0076-.0076.0076-.01524.0076-.00762.0076-.0076.0076-.00762.0076h-.01523l-.00762.0076-.0076.0076-.01524.0076h-.00763l-.0076.0076-.01524.0076-.00762.0076h-.0076l-.01524.00762-.0076.0076H9.8317l-.00762.0076h-.01523l-.00762.0076-.01523.0076h-.0076l-.01524.0076h-.00762l-.01523.0076H9.7327l-.01522.0076h-.0076l-.01524.0076h-.00762l-.01523.0076h-.02286l-.01523.0076h-.02284l-.0076.0076H9.588l-.01523.0076H9.5347l-.0076.0076h-.03047l-.00762.0076H9.43572l-.01523.0076h-.06854l-.0076.00762h-.36556l-.02285-.0076H8.895l-.02285-.0076h-.06093l-.03046-.0076h-.02285l-.03046-.0076H8.697l-.02285-.0076H8.6437l-.03048-.0076h-.03046l-.02285-.0076h-.03045l-.03046-.0076-.02286-.00762h-.03046l-.03046-.0076-.02285-.0076H8.3619l-.02284-.0076-.03046-.0076h-.03046l-.02285-.0076-.03047-.0076-.02285-.0076h-.03046l-.02285-.0076-.02284-.0076-.0533-.0152-.05332-.0076-.0457-.0152-.0533-.0076-.0457-.01522-.04568-.0076-.0457-.0152-.03807-.0076-.08377-.0228-.07616-.0228-.03808-.0076-.03046-.0076-.03808-.0076-.03046-.0076.51024-2.04476.03047.0076zm-.49502 2.00674l.03046.0076.03046.0076.03808.0076.07615.0228.08376.0228.0457.0076.03807.01522.0533.0076.0457.0152.0457.0076.0533.0152.0457.0152.0533.0076.02286.0076.03045.0076h.02285l.02284.0076.03047.0076.02285.0076h.03047l.03046.0076.02284.00762H8.4l.02283.0076.03047.0076h.03046l.02284.0076.03047.0076h.02284l.03048.0076h.03046l.03046.0076h.02285l.03046.0076h.03047l.02285.0076h.03046l.03046.0076h.0533l.03047.0076h.08377l.02283.0076h.30461l.02284-.0076h.08378l.00762-.0076h.0533l.01523-.0076H9.51948l.0076-.0076h.03808l.01524-.0076H9.60325l.01523-.0076h.00762l.01523-.0076h.02284l.00762-.0076H9.687l.00762-.0076h.01523l.0076-.0076h.01524l.00763-.0076h.01523l.00762-.0076h.01523l.00762-.0076h.00762l.01523-.0076.0076-.0076h.01525l.0076-.0076h.00763l.01523-.0076.0076-.0076h.00763l.01524-.0076.00762-.00762h.0076l.00763-.0076.01522-.0076.0076-.0076.00763-.0076h.00762l.01523-.0076.0076-.0076.00763-.0076.0076-.0076.00763-.0076h.0076l.00763-.0076.01522-.0076.00762-.0076.0076-.0076.00763-.0076.0076-.0076.00763-.00762.0076-.0076.00763-.0076.00762-.0076.0076-.0076.00763-.0076.0076-.0076.00763-.0076.00762-.0152.00762-.0076v-.0076l.0076-.0076.00763-.0076.00762-.01522.0076-.0076.00762-.0076.0076-.0076v-.0152l.00763-.0076.0076-.0076.00763-.0152v-.0076l.00762-.0076.0076-.0152v-.0076l.00763-.01522.0076-.0076v-.0152l.00763-.0076v-.0152l.0076-.0076v-.0152l.00763-.0076v-.0152l.0076-.0152v-.0076l.00762-.01522v-.0152l.00762-.0076v-.0152l.0076-.0152v-.0228l.00763-.0152v-.03802l.0076-.0152V10.19332l-.0076-.0076v-.03802l-.00762-.0076v-.0228l-.0076-.0152v-.0228l-.00763-.0076v-.0076l-.00762-.01522v-.0076l-.0076-.0152v-.0076l-.00763-.0076v-.0152l-.0076-.0076v-.0076l-.00763-.0152v-.0076l-.0076-.0076-.00763-.01522v-.0076l-.0076-.0076-.00762-.0152-.00762-.0076v-.0076l-.0076-.0076-.00763-.0152-.0076-.0076v-.0076l-.00763-.0076-.0076-.0152-.00763-.0076-.00762-.00762-.0076-.0076-.00763-.0076-.0076-.0152-.00763-.0076-.00762-.0076-.00762-.0076-.0076-.0076-.00763-.0076-.00762-.0152-.0076-.0076-.00762-.0076-.0076-.0076-.00763-.0076-.0076-.00762-.00763-.0076-.0076-.0076-.00763-.0152-.01524-.0076-.00762-.0076-.0076-.0076-.00763-.0076-.0076-.0076-.01523-.0076-.00762-.0076-.00762-.0076-.0076-.0076-.01524-.0076-.00763-.00762-.0076-.0076-.01524-.0076-.00762-.0076-.0076-.0076-.01524-.0076-.0076-.0076-.01524-.0076-.00762-.0076-.00762-.0076-.01523-.0076-.0076-.0076-.01524-.0076h-.0076l-.01524-.0076-.00762-.0076-.01523-.0076-.0076-.00762-.01523-.0076-.02285-.0152-.02285-.0076-.02284-.0152-.02285-.0152-.02285-.0076-.02284-.0152-.03048-.0152-.02284-.0076-.02285-.01522-.02285-.0076-.03046-.0152-.02285-.0076-.02284-.0152-.03046-.0076-.02285-.0152-.03046-.0076-.02285-.0076-.03045-.0152-.02285-.0076-.03046-.0076-.02285-.00762-.03047-.0152-.02285-.0076-.03046-.0076-.02285-.0076-.03046-.0076-.02284-.0152-.03046-.0076-.02284-.0076-.03047-.0076-.02285-.0076-.03047-.0076-.02284-.0076-.03047-.00762-.02284-.0076-.03046-.0076-.02285-.0076-.03046-.0076-.02285-.0076-.02284-.0076-.03046-.0076h-.02285l-.0533-.0152-.0457-.0152-.0533-.0076-.0457-.0152-.0457-.0076-.0457-.01522-.04568-.0076-.0457-.0076-.08377-.0228-.07615-.0152-.03808-.0076-.03046-.0076-.03045-.0076-.49502 1.96872zm1.18803-4.7964h.03047l.03046.0076.02283.0076.06854.0152.06855.0152.03807.0076.03807.0076.03808.0076.03808.0152.03807.0076.0457.0076.03808.01522.0457.0076.04568.0076.01523.0076.02284.0076.02285.0076.02283.0076h.02285l.02285.0076.02284.0076.02285.0076.02285.0076.02284.0076.02286.0076.01523.0076.02284.0076.02285.0076.02283.00762.02285.0076.02285.0076.02284.0076.02285.0076.02285.0076.02284.0076.02286.0076.02285.0076.02285.0076.02285.0152.01523.0076.02285.0076.02285.0076.02284.01522.02285.0076.02285.0076.01523.0152.02284.0076.02285.0076.01522.0152.02285.0076.02284.0152.01525.0076.02284.0152.02284.00762.01523.0152.02285.0076.01523.0152.02285.0152.0076.0076h.00763l.0076.0076.00763.0076.0076.0076.01524.0076.00762.0076.00762.0076.0076.0076h.00763l.0076.00762.00763.0076.0076.0076.00763.0076.01523.0076.00762.0076.0076.0076.00763.0076.00762.0076.00762.0076.0076.0076.00763.0076.0076.0076.00763.0076.00762.0076v.00762l.0076.0076.00763.0076.0076.0076.00763.0076.0076.0076.00763.0076.00763.0076v.0076l.0076.0076.00763.0152.0076.0076.00763.0076v.0076l.0076.0076.00762.00762v.0076l.0076.0076.00763.0152.00762.0076v.0076l.0076.0076v.0076l.00763.0152.0076.0076v.0076l.00763.0076v.0076l.0076.01522v.0076l.00763.0076v.0076l.0076.0152v.0076l.00763.0076v.0228l.0076.0076v.0228l.00762.0076v.03042l.00762.0152v.0456l.0076.0076v.13682l-.0076.00762v.0532l-.00762.0076v.038l-.0076.0152v.01522l-.00763.0076v.0304l-.00763.0076v.0152l-.0076.0076v.0152l-.00763.0076v.01522l-.0076.0076v.0152l-.00763.0076v.0152l-.0076.0076-.00762.0076v.0152l-.0076.0076v.0152l-.00763.0076-.00762.0076v.00762l-.0076.0152-.00763.0076-.0076.0076v.0076l-.00763.0152-.0076.0076-.00763.0076v.0076l-.0076.0076-.00763.0076-.0076.0076-.00762.0076-.00762.01522v.0076l-.0076.0076-.00763.0076-.0076.0076-.00763.0076-.00762.0076-.0076.0076h-.00763l-.0076.0076-.00763.0076-.0076.0076-.00763.0076-.00762.0076-.00762.0076-.00762.0076h-.0076l-.00763.0076-.0076.00762-.00762.0076-.0076.0076h-.00763l-.0076.0076-.01525.0076h-.0076l-.00763.0076-.0076.0076h-.00763l-.0076.0076-.01524.0076h-.00762l-.00762.0076-.0076.0076h-.00763l-.01523.0076h-.0076l-.00763.0076h-.00762l-.01523.0076h-.0076l-.00763.0076h-.00762l-.01523.00762h-.00762l-.00762.0076h-.01522l-.0076.0076h-.02286l-.0076.0076h-.02287l-.00762.0076H9.9688l-.00762.0076H9.93833l-.0076.0076h-.02287l-.01523.0076H9.8622l-.02285.0076H9.79364l-.02285.0076H9.6794l-.02284.0076H9.49664l-.02285-.0076h-.09901l-.02285-.0076h-.0457l-.02285-.0076h-.0457l-.02285-.0076h-.0533l-.02284-.0076h-.02285l-.02285-.0076h-.02284l-.02285-.0076h-.02284l-.02284-.0076h-.02285l-.02285-.0076-.02284-.0076h-.02285l-.02285-.0076h-.02284l-.02285-.0076-.02286-.0076H8.796l-.03808-.0152-.0457-.0076-.03807-.0076-.0457-.0076-.03807-.01522-.03808-.0076-.03808-.0076-.03808-.0152-.03808-.0076-.06854-.0152-.06092-.0228-.03046-.0076-.03046-.0076H8.2172l-.02283-.0076.46455-1.85472.02284.0076zm-.4417 1.8167l.01523.0076.03045.0076.03047.0076.06092.0152.06854.0152.03808.0076.03808.0152.03807.0076.0381.00762.03807.0152.0457.0076.03807.0076.0457.0076.03807.0152h.02286l.02285.0076.02285.0076H8.895l.02285.0076h.02284l.02284.0076h.02285l.02283.0076.02285.0076h.02285l.02284.0076h.02285l.02285.00762h.0457l.02285.0076h.02285l.02285.0076H9.291l.02286.0076H9.35955l.02285.0076H9.49662l.02285.0076h.13709l.02284-.0076H9.7708l.02284-.0076H9.83933l.01523-.0076h.03807l.00762-.0076h.02284l.00762-.0076H9.96117l.00763-.0076h.02283l.00763-.0076h.02283l.00762-.0076h.01523l.00762-.0076h.0076l.00763-.0076H10.09065l.0076-.0076h.00763l.01523-.0076h.00762l.00762-.0076h.0076l.00763-.00762h.00762l.01522-.0076.0076-.0076h.00763l.0076-.0076h.00763l.00762-.0076.0076-.0076h.01524l.00762-.0076.0076-.0076h.00763l.0076-.0076.00762-.0076h.00762l.0076-.0076.00763-.0076.0076-.0076h.00763l.0076-.0076.00763-.0076.0076-.00762.00763-.0076h.00762l.0076-.0076.00763-.0076v-.0076l.00762-.0076.00762-.0076.0076-.0076.00763-.0076.0076-.0076.00763-.0076.00762-.0076v-.0076l.0076-.0076.00763-.0076.0076-.0076V7.7837l.00763-.0076.0076-.0076.00763-.0076v-.0076l.00763-.0076.0076-.0152v-.0076l.00763-.0076.0076-.0076v-.0076l.00763-.0152.0076-.0076v-.0076l.00762-.01522v-.0076l.0076-.0076v-.0152l.00763-.0076.00762-.0076v-.0152l.0076-.0076v-.0228l.00763-.01522v-.0076l.0076-.0152v-.0076l.00763-.0152v-.0228l.0076-.0152v-.0304l.00763-.01522v-.0456l.0076-.0076V7.2288l-.0076-.0076V7.1832l-.00762-.0152v-.0304l-.0076-.0076v-.0152l-.00763-.0152v-.0152l-.0076-.0076v-.01522l-.00762-.0076v-.0152l-.0076-.0076v-.0152l-.00763-.0076v-.0076l-.00762-.0076-.0076-.0076v-.0076l-.00763-.0152v-.0076l-.0076-.00762-.00763-.0076v-.0076l-.0076-.0076-.00763-.0076v-.0076l-.0076-.0076-.00763-.0076v-.0076l-.0076-.0152-.00762-.0076-.00762-.0076v-.0076l-.0076-.0076-.00763-.0076-.0076-.00762-.00763-.0076-.00762-.0076v-.0076l-.0076-.0076-.00763-.0076-.0076-.0076-.00763-.0076-.0076-.0076-.00763-.0076h-.00762l-.00762-.0076-.00762-.0076-.0076-.0076-.00763-.0076-.0076-.0076-.00762-.00762-.0076-.0076-.00763-.0076-.0076-.0076-.00763-.0076h-.00762l-.0076-.0076-.00763-.0076-.01523-.0076-.0076-.0076-.00763-.0076-.0076-.0076h-.00762l-.00762-.0076-.0076-.0076-.02286-.0152-.01523-.0076-.02285-.01522-.01523-.0076-.02285-.0152-.01524-.0076-.02283-.0152-.01523-.0076-.02285-.0152-.02286-.0076-.01523-.0152-.02283-.0076-.02285-.0076-.01523-.01522-.02286-.0076-.02285-.0076-.02285-.0076-.02285-.0152-.01523-.0076-.02285-.0076-.02284-.0076-.02285-.0076-.02285-.0076-.02284-.0076-.02285-.0152-.02286-.00762-.01523-.0076-.02284-.0076-.02284-.0076-.02285-.0076-.02285-.0076-.02284-.0076h-.02285l-.02285-.0076-.02284-.0076-.02285-.0076-.02286-.0076-.02284-.0076-.01523-.0076-.02285-.0076h-.02285l-.02284-.0076-.02285-.0076-.02285-.00762-.03808-.0076-.0457-.0076-.03807-.0152-.0457-.0076-.03807-.0076-.03807-.0152-.03807-.0076-.03808-.0076-.03808-.0076-.06854-.0152-.06854-.0152-.03046-.00762-.02285-.0076H8.6894l-.44932 1.7787z" fill="#F6861F"/><path d="M12.43625 7.54046c.17515-1.12498-.6854-1.7331-1.8582-2.13595l.38077-1.52025-.9367-.23564-.36556 1.48986c-.2437-.0608-.49502-.12162-.74633-.17483l.37316-1.49745-.9291-.23564-.3808 1.52786-1.88103-.46368-.2437.98817s.67017.1672.67778.1748c.37317.09123.47217.36488.42648.5397l-.03047.13683-.9824 3.91465-.03047.12162c-.0457.11402-.15994.28885-.42648.22044.01523.0152-.67017-.16723-.67017-.16723l-.46455 1.0642 1.87343.47127-.3884 1.54306.93672.23564.38078-1.52786c.25132.06842.495.12923.7387.19004l-.38077 1.52026.9291.22804.3884-1.53546c1.58404.29645 2.7797.17483 3.28232-1.2542.40362-1.1554-.02285-1.8167-.86057-2.25.60926-.1444 1.0662-.53968 1.18805-1.36822zm-2.12475 2.9797c-.28178 1.1478-2.23137.5245-2.86346.37247l.51024-2.04475c.6321.15203 2.65784.46368 2.35322 1.67228zm.2894-2.9949c-.25894 1.04898-1.88106.5169-2.40653.38767l.46455-1.8547c.52547.1292 2.21613.37245 1.94197 1.46703z" fill="#FFF" fill-rule="nonzero"/><path d="M25.34466 5.18407c.6854 0 1.2718.12162 1.77443.36486.495.24324.90624.5625 1.2337.97296.32748.41806.57118.89694.7311 1.45184.15232.5549.22847 1.1478.22847 1.7863 0 .98056-.17515 1.90792-.5407 2.78206-.36555.87415-.86056 1.63428-1.48504 2.28038-.62448.6461-1.3632 1.1554-2.21613 1.52786-.85295.38006-1.78205.5701-2.77208.5701-.12946 0-.35793-.0076-.67778-.0152-.31986-.0076-.6854-.038-1.09665-.09122-.41125-.0608-.84534-.14443-1.3099-.25845-.46454-.11402-.89863-.26604-1.30987-.47128L21.59017.6081l3.30517-.50928-1.3175 5.48812c.28178-.12162.56355-.22044.85295-.29645.28176-.06842.5864-.10643.91386-.10643zM22.57258 14.298c.49502 0 .96718-.12162 1.4089-.36487.4417-.23563.82247-.5625 1.14232-.96536.31986-.40286.57117-.86654.75395-1.37583.1904-.50928.28177-1.04137.28177-1.59627 0-.6841-.11423-1.2086-.3427-1.59626-.22846-.38006-.64732-.5777-1.25657-.5777-.20562 0-.46455.03802-.7768.10643-.32746.076-.60923.22804-.86816.44847l-1.4089 5.83778c.08377.0152.15993.0304.22847.038.06093.0152.12947.0304.198.038.06855.00762.15232.00762.25894.00762h.38078z" fill-rule="nonzero" fill="#4D4D4D"/><path d="M32.7394 16.7532h-3.1757l2.68067-11.25748h3.19855M34.28535 4.1199c-.4417 0-.84533-.12923-1.20326-.39528-.35794-.25844-.54072-.6613-.54072-1.2086 0-.29645.06093-.5777.18278-.84374.12185-.26604.28177-.49408.4874-.6841.198-.19765.43408-.34967.693-.4637.26656-.114.54833-.16722.85296-.16722.4417 0 .8377.12922 1.19564.39527.35794.26604.5407.6689.5407 1.2086 0 .29645-.06092.5777-.18276.84374-.12185.26604-.28178.49408-.4874.6841-.198.19765-.4341.34967-.69302.4637-.26655.114-.54832.16722-.84533.16722z" fill="#4D4D4D"/><path d="M38.23784 2.67565l3.30516-.5169-.81487 3.30657h3.54125l-.6397 2.59203h-3.5184l-.93673 3.92226c-.08377.32686-.13708.6309-.1523.91216-.01524.28885.02284.5321.1066.73732.08378.20524.2361.36486.46456.47888.21325.11402.5331.16723.94434.16723.3427 0 .67017-.0304.99764-.09122.31224-.0684.6397-.15203.96718-.26605l.2361 2.4248c-.4265.15963-.89104.28886-1.38605.40288-.50262.11402-1.08902.17483-1.77442.17483-.9824 0-1.73635-.15202-2.28467-.44087-.5407-.28885-.92148-.6841-1.14995-1.1934-.22847-.50168-.32747-1.07938-.297-1.7331.03046-.6537.12946-1.3378.297-2.06754l2.0943-8.80987zM44.1323 12.14683c0-.96536.15993-1.8775.47216-2.72885.31224-.85134.76156-1.59627 1.34035-2.23478.5864-.6385 1.29466-1.1402 2.12475-1.51265.8301-.36486 1.7592-.5549 2.7873-.5549.63972 0 1.21088.06082 1.7135.18244.50264.1216.9672.28123 1.37843.47887l-1.08903 2.4704c-.2894-.114-.57878-.21282-.8834-.30404-.30463-.0912-.6778-.13682-1.1195-.13682-1.05856 0-1.88866.35727-2.51314 1.0794-.61685.7221-.9291 1.70267-.9291 2.91888 0 .72212.15994 1.30742.47218 1.7559.31224.44847.89102.6765 1.72874.6765.41124 0 .81486-.0456 1.19564-.12922.38078-.0836.72348-.19763 1.0205-.31925l.23607 2.53123c-.396.15203-.8377.29645-1.3175.41807-.4874.11402-1.06617.17483-1.72873.17483-.8834 0-1.62973-.12162-2.23898-.38006-.61686-.25844-1.1195-.6005-1.5155-1.03377-.40363-.43328-.6854-.94256-.86818-1.52026-.17516-.5853-.26654-1.1934-.26654-1.8319zM58.09928 16.91283c-.75395 0-1.4089-.11402-1.96482-.33445-.55594-.22804-1.01288-.5473-1.37843-.95776-.35793-.41807-.6321-.90455-.82248-1.45945-.18277-.5625-.27416-1.1858-.27416-1.8623 0-.85135.13707-1.7103.41885-2.56164.27416-.85134.6854-1.61147 1.2261-2.29558.5407-.68412 1.20327-1.239 1.98006-1.67228.7844-.43328 1.68305-.6537 2.6883-.6537.73872 0 1.39366.1216 1.9572.34204.55595.22805 1.0205.5473 1.38605.95777.35793.41807.6321.90456.81487 1.45945.1904.5625.28177 1.1858.28177 1.8623 0 .85135-.1371 1.7103-.40363 2.56164-.27416.84374-.67017 1.61147-1.19565 2.29558-.52547.68412-1.18803 1.239-1.97244 1.6723-.79202.43326-1.7059.6461-2.7416.6461zM59.6757 7.8065c-.47217 0-.8834.12923-1.23372.40288-.35794.26604-.65494.6081-.89864 1.01857-.2437.41807-.42647.86654-.54832 1.35302-.12185.4941-.17516.95776-.17516 1.39864 0 .70693.11423 1.26182.33508 1.65708.22847.39527.6397.6005 1.24134.6005.47217 0 .8834-.13682 1.23373-.41046.35794-.26605.65495-.6081.89865-1.01857.2437-.41047.42647-.86655.54832-1.35303.11423-.48648.17516-.95776.17516-1.39864 0-.7069-.11424-1.2618-.3427-1.65707-.22086-.39526-.6397-.5929-1.23373-.5929z" fill-rule="nonzero" fill="#4D4D4D"/><path d="M67.87007 16.7532h-3.1757l2.68068-11.25748h3.19855M69.4084 4.1199c-.4417 0-.8377-.12923-1.19563-.39528-.35793-.25844-.5407-.6689-.5407-1.2086 0-.29645.06092-.5777.18277-.84374.12185-.26604.28177-.49408.4874-.6841.198-.19765.43408-.34967.693-.4637.26656-.114.54833-.16722.84534-.16722.44932 0 .84533.12922 1.20326.39527.35794.26604.5407.6689.5407 1.2086 0 .29645-.06853.5777-.19038.84374-.11423.26604-.27416.49408-.47978.6841-.198.19765-.4341.34967-.69302.4637-.26655.114-.54832.16722-.85295.16722z" fill="#4D4D4D"/><path d="M72.59173 6.005c.2437-.0684.51024-.15202.80725-.24324.2894-.0988.61686-.18243.9824-.25844.36556-.076.7768-.14442 1.22612-.19003.44932-.05322.95956-.07602 1.53073-.07602 1.67543 0 2.833.48648 3.4651 1.45184.6397.97296.74632 2.3032.33508 3.98307l-1.4622 6.081H76.2853l1.4089-5.9518c.09137-.37245.1599-.7297.2056-1.07937.05332-.34966.05332-.6613-.0076-.91976-.06093-.26604-.1904-.47888-.39602-.6461-.21323-.16723-.52547-.24324-.95956-.24324-.41124 0-.8301.038-1.2642.12922l-2.07904 8.71106H69.9948L72.59174 6.005z" fill-rule="nonzero" fill="#4D4D4D"/><path d="M91.13567 16.23632c-.2437.076-.51024.15963-.80725.25084-.2894.09122-.61686.17483-.99003.25084-.35794.08362-.76918.14443-1.2185.19764-.44932.0532-.95956.076-1.53073.076-1.67543 0-2.833-.48647-3.4651-1.45944-.6397-.97296-.74632-2.29558-.33508-3.98306l1.46218-6.08102h3.19093l-1.4165 5.9518c-.08376.37246-.1523.73732-.198 1.08698-.0533.34966-.0533.6537.00763.91975.06092.25845.19038.47888.396.6385.21324.16724.52548.25085.95195.25085.41886 0 .83772-.0456 1.2718-.12922l2.07906-8.71866h3.19854l-2.5969 10.7482zM95.6898 5.9898c.2437-.0684.51023-.15202.80724-.24324.2894-.0912.62448-.18243.99003-.25844.35793-.076.76917-.14442 1.2185-.19003.4493-.05322.96717-.07602 1.53834-.07602 1.69067 0 2.84823.48648 3.48033 1.45944.62448.96536.7387 2.29558.31985 3.98307l-1.4622 6.0886h-3.19853l1.4165-5.9594c.08377-.37245.1523-.7297.2056-1.07937.05332-.34966.0457-.6613-.0076-.92736-.06093-.25844-.1904-.47888-.396-.6385-.21325-.16723-.5331-.25085-.95957-.25085-.41125 0-.83772.0456-1.2642.12922l-2.08666 8.72627h-3.19855L95.6898 5.9898zM109.4359 16.96604c-1.02047 0-1.8125-.12922-2.39128-.39526-.5864-.26605-.99764-.6233-1.24895-1.0794-.25132-.46366-.37317-.98815-.36555-1.58105.0076-.5929.09138-1.2238.2437-1.89272L108.4002.6309l3.33562-.50928-2.9853 12.34447c-.06093.25843-.0914.49407-.099.7069-.00763.21284.03045.40287.11422.5701.0914.15963.2361.29645.4417.39527.21324.0988.50263.16723.8758.19003l-.64733 2.63764zM114.18042 16.7532h-3.1757l2.6807-11.27268h3.19853l-2.70353 11.2727zm1.54596-12.6485c-.4417 0-.84532-.12923-1.20326-.39528-.35793-.26604-.5331-.6689-.5331-1.2086 0-.30405.06094-.5853.1828-.85134.12184-.26605.28176-.4865.47977-.68412.198-.19003.43408-.34966.70062-.46368.26655-.11402.54832-.16722.84533-.16722.4417 0 .84533.12922 1.20326.39526.35795.26605.54072.6689.54072 1.2086 0 .30406-.06093.5853-.18277.85135-.12185.26604-.2894.49408-.4874.6841-.198.19004-.4341.34967-.70064.4637-.25892.114-.5407.16722-.84532.16722zM119.161 5.9898c.2437-.0684.51026-.15202.78442-.24324.28177-.0912.594-.18243.94433-.25844.35032-.076.74633-.14442 1.1804-.19003.44172-.05322.94435-.07602 1.5155-.07602.68542 0 1.2566.0836 1.7059.25844.45694.16723.86818.42567 1.24134.76773.52547-.29645 1.05095-.5473 1.57642-.73733.51786-.19003 1.13472-.28884 1.83536-.28884.67017 0 1.24895.0912 1.72873.26604.4798.17483.8758.43327 1.18804.77533.31986.33446.54833.72972.69302 1.201.13708.46368.21324.97296.21324 1.52786 0 .25845-.02285.5321-.0533.81334-.0381.28885-.0914.5777-.15994.85895l-1.4622 6.0886h-3.19853l1.4165-5.9594c.03807-.19762.09138-.42566.13707-.6765.0533-.25085.07616-.4941.07616-.73733 0-.40287-.0914-.74492-.28178-1.04137-.18277-.28885-.54832-.44088-1.08902-.44088-.30463 0-.59402.0532-.86057.15963-.27417.11402-.51787.22044-.7311.33446.03046.11403.0457.22044.0457.32686v.27365c0 .25845-.02285.5321-.06093.81334-.03047.28885-.08377.5777-.15993.85895l-1.45458 6.0886h-3.20616l1.4165-5.9594c.0457-.19762.0914-.42566.1447-.6765.0457-.25085.07615-.4941.07615-.73733 0-.40287-.099-.74492-.28177-1.04137-.18278-.28885-.54832-.44088-1.09665-.44088-.22846 0-.41885.0152-.57878.038-.15993.0152-.3427.05322-.55594.09122l-2.08666 8.72627h-3.19854l2.5969-10.7634zM137.39272 16.7532h-3.1757l2.6883-11.27268h3.19854l-2.71114 11.2727zm1.54596-12.6485c-.4417 0-.84533-.12923-1.20326-.39528-.35032-.26604-.5331-.6689-.5331-1.2086 0-.30405.06093-.5853.18278-.85134.12185-.26605.28178-.4865.47978-.68412.20562-.19003.4341-.34966.70064-.46368.26654-.11402.54832-.16722.84532-.16722.44932 0 .84533.12922 1.20327.39526.35794.26605.5407.6689.5407 1.2086 0 .30406-.0609.5853-.18276.85135-.12185.26604-.28178.49408-.4874.6841-.198.19004-.42647.34967-.69302.4637-.26654.114-.54832.16722-.85294.16722zM142.8531 2.66805l3.328-.5093-.81487 3.32177h3.5641l-.64733 2.61484h-3.54125l-.94433 3.94506c-.0914.32685-.1447.6309-.16754.91975-.01523.28125.01523.5321.11423.73733.0914.20523.25132.36486.4798.48648.22846.11402.5483.16722.94432.16722.3427 0 .6778-.0304.99765-.0988.32747-.06082.64732-.15204.9824-.26606l.2361 2.4476c-.4341.15204-.89865.28886-1.40128.40288-.49502.11402-1.08904.17483-1.78205.17483-.9824 0-1.7516-.15203-2.2923-.44087-.54832-.29645-.9367-.69172-1.16518-1.201-.22847-.5093-.32747-1.087-.297-1.7483.03046-.6537.12946-1.34542.297-2.07515l2.10952-8.87828zM148.51908 12.33687c0-.91216.15993-1.8015.4874-2.66045.31985-.85134.7768-1.61907 1.3632-2.28038.5864-.6613 1.29464-1.201 2.13235-1.61147.8377-.40287 1.76682-.6081 2.7797-.6081.50262 0 .96717.076 1.40125.21283.42648.14443.79964.35726 1.1271.6233.31987.27365.57118.6081.74634.99577.18277.39527.27416.84375.27416 1.34543 0 .79813-.18277 1.47465-.5407 2.02954-.35794.5625-.85295 1.01097-1.49266 1.36823-.6397.34966-1.39365.6005-2.26183.76013-.8758.15202-1.82775.23564-2.85585.23564.099.6005.31224 1.01857.65494 1.2694.33507.25085.86816.38007 1.59926.38007.45693 0 .9215-.038 1.39365-.1216.47218-.07602.91388-.19764 1.33274-.34967l.23608 2.50842c-.40362.15203-.91387.29645-1.53835.42567-.62447.12923-1.29465.19004-2.02574.19004-.89102 0-1.63735-.12162-2.2466-.37247-.60924-.25085-1.10426-.5853-1.47742-1.01858-.38077-.42567-.66255-.92735-.8301-1.49745-.17515-.5777-.25892-1.1782-.25892-1.8243zm6.2524-4.62918c-.7311 0-1.3708.25843-1.92675.78292-.54832.5245-.91387 1.2086-1.0814 2.06755.8834-.0304 1.59926-.10642 2.14758-.22804.54072-.12162.9672-.26604 1.2642-.43327.30462-.17483.50263-.35726.60163-.5625.099-.19763.1523-.39526.1523-.6005 0-.6841-.38838-1.02617-1.15756-1.02617zM163.39993 17.04966c-.71587 0-1.3251-.11402-1.83536-.35726-.51024-.24324-.92148-.5777-1.24134-1.00337-.32747-.41807-.56355-.91215-.70825-1.47465-.1523-.5701-.22846-1.1706-.22846-1.8167 0-.96537.17515-1.88512.52547-2.75166.3503-.86655.8377-1.61908 1.44695-2.25758.61686-.6461 1.34796-1.1554 2.1933-1.52786.84532-.36486 1.7668-.5549 2.77206-.5549.25894 0 .49502.0152.71588.04562.22085.0304.44932.0684.67778.12922l1.15757-4.8496 3.328-.5093-2.833 11.76677c-.198.81333-.25892 1.63426-.16753 2.4552.08377.82094.25132 1.55066.495 2.19677l-2.85583.40287c-.0914-.16723-.16754-.33446-.2437-.48648-.06854-.15963-.13708-.34206-.21323-.5397-.396.32686-.84533.6005-1.34035.81334-.49502.21284-1.04334.31926-1.64497.31926zm3.69356-9.02272c-.0838-.0152-.15994-.0304-.22087-.038-.06854-.0152-.12946-.0304-.198-.038-.06093-.0076-.1447-.0076-.2437-.0076h-.3884c-.50262 0-.96717.114-1.39365.34965-.4341.24323-.79963.55488-1.10426.95775-.31224.40287-.54832.85134-.72348 1.36063-.16754.50928-.25893 1.02617-.25893 1.55826 0 .6841.12186 1.2238.35795 1.61147.23608.39527.66255.5929 1.2794.5929.32748 0 .6245-.0684.89865-.19002.27416-.12923.55594-.34206.86056-.6461.03047-.35727.07616-.72973.13708-1.125.06854-.39527.13708-.75253.20562-1.07938l.79203-3.30656z" fill-rule="nonzero" fill="#C6C6C6"/><g fill="#FF7E00"><path d="M85.3314 23.0918l.3787.8151c.75747-.34258 1.25455-.82692 2.47358-.7206.8048.07088 1.4084.48433 1.43206 1.77195-1.97648 0-4.61574-.3544-4.61574 2.13815 0 1.46482 1.3729 1.84283 2.62742 1.84283.92315 0 1.42023-.47252 1.98832-.85053v.85053h.99416c0-1.24036.1302-2.717.04734-3.94554-.05917-.96868-.2012-1.67746-.6746-2.10273-.91132-.8269-2.2132-.76784-3.2902-.42526-.5681.1772-.92315.34258-1.36105.6261zm.59175 3.86285c0-.98048.8758-1.13405 1.8463-1.13405h1.8463v.42527c0 1.14586-1.14803 1.8192-2.16586 1.831-.8048.02364-1.55042-.34257-1.52675-1.12222zM127.069 23.0918l.37874.8151c.75745-.34258 1.25453-.82692 2.47356-.7206.8048.07088 1.4084.48433 1.43207 1.77195-1.9765 0-4.61575-.3544-4.61575 2.13815 0 1.46482 1.3729 1.84283 2.62743 1.84283.92315 0 1.42023-.47252 1.98832-.85053v.85053h.99416c0-1.24036.13018-2.717.04734-3.94554-.05918-.96868-.2012-1.67746-.6746-2.10273-.91132-.8269-2.2132-.76784-3.2902-.42526-.5681.1772-.92316.34258-1.36106.6261zm.59177 3.86285c0-.98048.8758-1.13405 1.8463-1.13405h1.8463v.42527c0 1.14586-1.14802 1.8192-2.16585 1.831-.8048.02364-1.55042-.34257-1.52675-1.12222zM107.5393 23.4746v-1.33487h-1.0415v9.10782l1.0415-.02363v-3.6502c.78114.89778 1.38474 1.24035 2.7458 1.24035 1.5149 0 2.93513-1.42937 2.98247-2.9887.0355-1.05134-.1302-1.79556-.5681-2.4689-.55625-.85054-1.65693-1.32306-2.66292-1.32306-1.0415.01182-1.9173.68516-2.49724 1.4412zm2.46174 4.34718c-1.66877 0-2.47356-1.21674-2.4499-2.42167.02368-1.2049.86398-2.40984 2.4499-2.40984 1.42023 0 2.1777 1.20493 2.18952 2.40985.02367 1.20494-.69828 2.42168-2.18952 2.42168zM97.13473 27.4905v1.33486h1.0415v-9.10783l-1.0415.02363v3.65022c-.78113-.8978-1.38473-1.24037-2.74578-1.24037-1.5149 0-2.93514 1.42938-2.98248 2.9887-.0355 1.05136.1302 1.79558.5681 2.46892.55625.85053 1.65693 1.32305 2.66292 1.32305 1.0415-.0118 1.9173-.68515 2.49723-1.44118zM94.673 23.1433c1.66877 0 2.47356 1.21674 2.4499 2.42167-.02368 1.20492-.86398 2.40985-2.4499 2.40985-1.42023 0-2.1777-1.20493-2.18952-2.40985-.02367-1.20493.69828-2.42167 2.18952-2.42167zM161.6002 27.4905v1.33486h1.0415v-9.10783l-1.0415.02363v3.65022c-.78112-.8978-1.38472-1.24037-2.74577-1.24037-1.5149 0-2.93514 1.42938-2.98248 2.9887-.0355 1.05136.1302 1.79558.5681 2.46892.55625.85053 1.65692 1.32305 2.66292 1.32305 1.0415-.0118 1.9173-.68515 2.49723-1.44118zm-2.46172-4.3472c1.66876 0 2.47356 1.21674 2.4499 2.42167-.02368 1.20492-.86398 2.40985-2.4499 2.40985-1.42023 0-2.1777-1.20493-2.18952-2.40985-.02367-1.20493.69828-2.42167 2.18952-2.42167zM163.35938 25.50136c.0947 2.31535 1.63327 3.42577 3.19552 3.43758.99416.01182 2.13034-.3544 2.78128-1.11042l-.6036-.6379c-.6746.61428-1.2427.86235-2.17768.80328-1.1125-.05906-2.16585-.77965-2.20136-2.06727h5.4087c.10652-2.78787-1.53857-3.7211-3.14817-3.69747-2.07116.04725-3.2547 1.20493-3.2547 3.2722zm3.3257-2.4453c1.26638 0 1.98833.83873 2.083 2.00822h-4.41454c.0355-1.32306 1.08885-2.0082 2.33155-2.0082zM119.7538 25.0459v.99415h5.27355v-.99416M134.1509 25.0459v.99415h5.27355v-.99416M147.55147 28.94605h-1.21903v-4.25268c0-.96867-.8758-1.41756-1.63327-1.41756-.73378-.0118-2.26053.20083-2.26053 2.2799v3.39035h-1.13618v-6.65072h1.13618v1.14586c.48525-.8033 1.56226-1.24038 2.53274-1.24038 1.19536 0 2.5801.9923 2.5801 2.56342v4.1818zM154.1455 25.5665c0-.66152-.2367-1.22854-.68644-1.70106-.46157-.4607-1.006-.69697-1.66877-.69697-.67462 0-1.2427.22445-1.71612.67334-.4734.4489-.7101 1.00412-.7101 1.64202 0 .64972.22486 1.21674.68643 1.68926.4616.47252 1.01784.70878 1.66878.70878.66277 0 1.23087-.22445 1.70427-.67334.4734-.4489.72195-.9923.72195-1.642zm1.02967 0c0 .93324-.3314 1.7247-1.01783 2.37443-.6746.66152-1.4794.9923-2.43806.9923-.94682 0-1.7753-.33078-2.4499-.9923-.6746-.64972-1.006-1.453-1.006-2.38623 0-.94504.31956-1.74832.98234-2.42167.66277-.67334 1.45573-1.0159 2.41438-1.0159.95866 0 1.78713.34256 2.4854 1.0041.68645.67333 1.02967 1.48843 1.02967 2.44528zM104.77602 25.5665c0-.66152-.2367-1.22854-.68645-1.70106-.46157-.4607-1.006-.69697-1.66876-.69697-.6746 0-1.2427.22445-1.7161.67334-.4734.4489-.71012 1.00412-.71012 1.64202 0 .64972.22487 1.21674.68645 1.68926.46157.47252 1.01783.70878 1.66876.70878.66277 0 1.23086-.22445 1.70427-.67334.4734-.4489.72195-.9923.72195-1.642zm1.02966 0c0 .93324-.33138 1.7247-1.01783 2.37443-.6746.66152-1.4794.9923-2.43806.9923-.94683 0-1.7753-.33078-2.4499-.9923-.6746-.64972-1.006-1.453-1.006-2.38623 0-.94504.31956-1.74832.98233-2.42167.66277-.67334 1.45573-1.0159 2.4144-1.0159.95864 0 1.7871.34256 2.4854 1.0041.68643.67333 1.02965 1.48843 1.02965 2.44528zM114.98406 22.39518h-.99416v.85054h.99416c0 1.38212.05917 2.59886.01183 3.49664-.05918 1.60657.61542 2.29173 1.9883 2.1854.5681 0 .85215-.23625 1.25455-.51976l-.30772-.77966c-.44974.23626-.54442.40164-.79296.40164-1.13618.05907-1.12435-.67334-1.12435-1.68926l-.01183-3.095h2.10666v-.85054h-2.07117V20.6941h-1.05334v1.70108z"/></g></g></svg>